<?xml version="1.0" standalone="no"?>
<!DOCTYPE svg PUBLIC "-//W3C//DTD SVG 20010904//EN"
 "http://www.w3.org/TR/2001/REC-SVG-20010904/DTD/svg10.dtd">
<svg version="1.0" xmlns="http://www.w3.org/2000/svg"
 width="500.000000pt" height="500.000000pt" viewBox="0 0 500.000000 500.000000"
 preserveAspectRatio="xMidYMid meet">

<g transform="translate(0.000000,500.000000) scale(0.100000,-0.100000)"
fill="#000000" stroke="none">
<path d="M170 2264 c0 -48 31 -238 55 -339 137 -578 492 -1087 991 -1420 54
-36 182 -108 285 -160 l187 -95 -107 108 c-233 232 -380 491 -416 732 -5 37
-23 64 -99 157 -261 317 -454 663 -538 961 l-23 82 -167 0 -168 0 0 -26z"/>
<path d="M1358 2193 c-26 -30 -85 -155 -110 -233 -21 -68 -23 -93 -23 -265 1
-154 5 -213 23 -310 59 -313 144 -541 273 -732 51 -76 196 -212 299 -281 170
-114 381 -207 562 -249 149 -34 438 -16 688 43 747 176 1357 695 1634 1390 71
180 136 428 152 587 l7 67 -330 0 -329 0 -64 -97 c-102 -156 -265 -301 -435
-386 -132 -66 -327 -117 -522 -138 -104 -11 -117 -10 -182 10 -196 60 -270
222 -180 398 16 32 56 90 89 128 33 39 60 73 60 78 0 4 -359 7 -798 7 -748 0
-800 -1 -814 -17z"/>
</g>
</svg>
