<?xml version="1.0" standalone="no"?>
<!DOCTYPE svg PUBLIC "-//W3C//DTD SVG 20010904//EN"
 "http://www.w3.org/TR/2001/REC-SVG-20010904/DTD/svg10.dtd">
<svg version="1.0" xmlns="http://www.w3.org/2000/svg"
 width="42.000000pt" height="42.000000pt" viewBox="0 0 42.000000 42.000000"
 preserveAspectRatio="xMidYMid meet">

<g transform="translate(0.000000,42.000000) scale(0.100000,-0.100000)"
fill="#000000" stroke="none">
<path d="M20 175 c0 -30 28 -80 60 -110 18 -16 30 -24 25 -16 -4 7 -9 21 -9
30 -2 19 -58 110 -68 111 -5 0 -8 -7 -8 -15z"/>
<path d="M110 171 c-10 -20 -4 -72 12 -104 5 -10 24 -27 41 -37 87 -54 213 16
241 133 6 24 3 27 -17 27 -13 0 -32 -9 -42 -20 -9 -10 -33 -24 -52 -31 -29 -9
-38 -9 -51 4 -13 13 -13 19 -2 31 11 14 5 16 -53 16 -55 0 -68 -3 -77 -19z"/>
</g>
</svg>
